<?xml version="1.0" encoding="utf-8"?>
<!-- Generator: Adobe Illustrator 19.2.0, SVG Export Plug-In . SVG Version: 6.00 Build 0)  -->
<!DOCTYPE svg PUBLIC "-//W3C//DTD SVG 1.1//EN" "http://www.w3.org/Graphics/SVG/1.1/DTD/svg11.dtd">
<svg version="1.1" xmlns="http://www.w3.org/2000/svg" xmlns:xlink="http://www.w3.org/1999/xlink" x="0px" y="0px"
	 viewBox="0 0 256 256" style="enable-background:new 0 0 256 256;" xml:space="preserve">
<g id="axis-orientation">
	<path d="M232.9,239.4l-11.2-23.6c-0.5-1-1.4-1.7-2.6-1.9c-1.1-0.1-2.2,0.3-3,1.1l-2.6,2.9c0,0-80.6-70.1-81.1-70.7V139h0V42.5h3.9
		c1.1,0,2.2-0.6,2.8-1.5c0.6-1,0.7-2.2,0.2-3.2l-10.8-23.9c-0.5-1.2-1.7-2-3.1-2c-1.2,0-2.5,0.8-3.1,2l-10.5,23.9
		c-0.5,1-0.4,2.2,0.3,3.2c0.6,0.9,1.7,1.5,2.8,1.5h3.9V139v8.3c0,0.2-81.1,70.7-81.1,70.7l-2.6-2.9c-0.7-0.9-1.9-1.2-3-1.1
		c-1.1,0.2-2.1,0.9-2.6,1.9l-11.2,23.6c-0.6,1.2-0.4,2.6,0.5,3.6c0.6,0.7,1.6,1.2,2.5,1.2c0.3,0,0.7,0,1-0.1l25.1-7.6
		c1.1-0.3,1.9-1.2,2.2-2.3c0.3-1.1,0.1-2.3-0.7-3.1l-2.6-2.9l79-68.8l79,68.8l-2.6,2.9c-0.7,0.9-1,2-0.7,3.1c0.3,1.1,1.2,2,2.2,2.3
		l25.1,7.6c0.3,0.1,0.6,0.1,1,0.1c1,0,1.9-0.4,2.5-1.2C233.3,242,233.5,240.6,232.9,239.4z"/>
</g>
</svg>
