<?xml version="1.0" encoding="utf-8"?>
<!-- Generator: Adobe Illustrator 19.2.0, SVG Export Plug-In . SVG Version: 6.00 Build 0)  -->
<!DOCTYPE svg PUBLIC "-//W3C//DTD SVG 1.1//EN" "http://www.w3.org/Graphics/SVG/1.1/DTD/svg11.dtd">
<svg version="1.1" xmlns="http://www.w3.org/2000/svg" xmlns:xlink="http://www.w3.org/1999/xlink" x="0px" y="0px"
	 viewBox="0 0 256 256" style="enable-background:new 0 0 256 256;" xml:space="preserve">
<g id="axis-center">
	<path d="M226.9,119h-86.1L206,64.4c1.4-1.2,1.6-3.3,0.4-4.7c-1.2-1.4-3.3-1.6-4.7-0.4l-67.2,56.2V26.3c0-3.7-3-6.7-6.7-6.7
		c-3.7,0-6.7,3-6.7,6.7V119H28.5c-3.7,0-6.7,3-6.7,6.7c0,3.7,3,6.7,6.7,6.7h85.8l-64.7,54.1c-1.4,1.2-1.6,3.3-0.4,4.7
		c0.7,0.8,1.6,1.2,2.6,1.2c0.8,0,1.5-0.3,2.1-0.8l67.2-56.2v89.2c0,3.7,3,6.7,6.7,6.7c3.7,0,6.7-3,6.7-6.7v-92.2h92.4
		c3.7,0,6.7-3,6.7-6.7C233.6,122,230.6,119,226.9,119z"/>
</g>
</svg>
