<?xml version="1.0" encoding="utf-8"?>
<!-- Generator: Adobe Illustrator 19.2.0, SVG Export Plug-In . SVG Version: 6.00 Build 0)  -->
<!DOCTYPE svg PUBLIC "-//W3C//DTD SVG 1.1//EN" "http://www.w3.org/Graphics/SVG/1.1/DTD/svg11.dtd">
<svg version="1.1" xmlns="http://www.w3.org/2000/svg" xmlns:xlink="http://www.w3.org/1999/xlink" x="0px" y="0px"
	 viewBox="0 0 256 256" style="enable-background:new 0 0 256 256;" xml:space="preserve">
<g id="bounding-box">
	<path d="M236.6,161.9c0-0.3,0.2-0.5,0.2-0.8V36.8c0-0.3-0.1-0.6-0.2-1c-0.1-0.5-0.1-0.9-0.3-1.4c-0.2-0.5-0.5-0.8-0.7-1.3
		c-0.2-0.3-0.3-0.6-0.5-0.8c-0.1-0.1-0.1-0.1-0.2-0.1c-0.3-0.4-0.8-0.6-1.2-0.9c-0.3-0.2-0.6-0.5-0.9-0.6c-0.4-0.2-0.7-0.2-1.1-0.3
		c-0.5-0.1-0.9-0.3-1.4-0.3c-0.1,0-0.1,0-0.2,0h-121c-0.3,0-0.5,0.1-0.7,0.1c-0.4,0-0.9,0.1-1.3,0.3c-0.5,0.1-0.9,0.3-1.3,0.6
		c-0.2,0.1-0.4,0.2-0.7,0.3L26.5,88.4c-0.1,0.1-0.2,0.3-0.3,0.4c-0.4,0.3-0.7,0.6-0.9,1c-0.3,0.3-0.5,0.6-0.7,1
		c-0.2,0.4-0.3,0.8-0.4,1.2c-0.1,0.4-0.2,0.9-0.3,1.3c0,0.2-0.1,0.3-0.1,0.5v134.4c0,3.7,3,6.7,6.7,6.7h134.4c0.9,0,1.8-0.2,2.6-0.5
		c0.8-0.3,1.6-0.9,2.2-1.5c0,0,0,0,0,0l65.2-67.1c0,0,0,0,0,0l0.1-0.1c0.2-0.2,0.2-0.4,0.4-0.6c0.4-0.5,0.8-1,1-1.6
		C236.5,163,236.6,162.5,236.6,161.9z M171.5,164.4h46l-46,47.3V164.4z M37.1,218.1V100.6h68.6v57.1v1.8L37.1,218.1z M162.3,87.1
		h-49.8V43.5h99.8L162.3,87.1z M105.7,47.5v39.6H51.1L105.7,47.5z M112.4,157.7v-57.1h45.6v57.1H112.4z M171.5,96.9l51.9-45.3v106.1
		h-51.9V96.9z M43.4,221.5l66.9-57.1h2.1h45.6v57.1H43.4z"/>
</g>
</svg>
