<?xml version="1.0" encoding="utf-8"?>
<!-- Generator: Adobe Illustrator 19.2.0, SVG Export Plug-In . SVG Version: 6.00 Build 0)  -->
<!DOCTYPE svg PUBLIC "-//W3C//DTD SVG 1.1//EN" "http://www.w3.org/Graphics/SVG/1.1/DTD/svg11.dtd">
<svg version="1.1" xmlns="http://www.w3.org/2000/svg" xmlns:xlink="http://www.w3.org/1999/xlink" x="0px" y="0px"
	 viewBox="0 0 256 256" style="enable-background:new 0 0 256 256;" xml:space="preserve">
<style type="text/css">
	.st0{display:none;}
	.st1{display:inline;}
	.st2{display:inline;fill:#FFFFFF;}
</style>
<g id="paraview" class="st0">
	<g class="st1">
		<g>
			<polygon points="65.4,211.3 14.6,211.3 56.4,53.4 107.2,53.4 			"/>
		</g>
		<g>
			<polygon points="132.7,211.3 81.9,211.3 123.6,53.4 174.4,53.4 			"/>
		</g>
		<g>
			<polygon points="199.9,211.3 149.1,211.3 190.9,53.4 241.6,53.4 			"/>
		</g>
	</g>
</g>
<g id="paraviewweb" class="st0">
	<g class="st1">
		<polygon points="60.2,211.3 35.7,211.3 49,40 106.1,40 		"/>
	</g>
	<g class="st1">
		<polygon points="159.9,211.3 135.4,211.3 181.4,40 238.5,40 		"/>
	</g>
	<g class="st1">
		<polygon points="118.8,88.6 69.5,211.3 126.6,211.3 140.9,88.6 		"/>
	</g>
</g>
<g id="kitware" class="st0">
	<g class="st1">
		<g>
			<path d="M216.9,77c-6.2,0-12.3,0-18.5,0c-66.9,18.7-76.9,102.5-30,142.9c-54.2-36.8-44.4-130,29.5-149.8c-6.2,0-12.3,0-18.5,0
				c-66.9,18.7-76.9,102.5-30,142.9c-54.2-36.8-44.4-130,29.5-149.8c-6.2,0-12.3,0-18.5,0c-21,5.9-36.3,18.2-46.1,33.5
				c-0.7-28.8-5.2-58.2-13.9-87.7c-5.2,5-10.4,9.9-15.6,14.9c25.8,73.8,21.6,151.9-10.2,217.1c1.4,1.4,2.8,2.7,4.3,4.1
				c12.7-22.5,22-47.1,28-73c8.8,23.8,28.3,44.2,58.5,52.3c0.3,0,0.6,0,1,0c5.5,2.8,11.4,5.2,17.9,6.9c0.3,0,0.6,0,1,0
				c5.5,2.8,11.4,5.2,17.9,6.9c2.8,0,5.7,0,8.5,0C131.6,215.7,133.3,99.4,216.9,77z"/>
		</g>
		<g>
			<path d="M57.1,50.6c-5.2,5-10.4,9.9-15.5,14.9c28,43.5,37,102.5,21.4,164c1.4,1.4,2.8,2.7,4.3,4.1
				C88.5,170.7,84.3,104.9,57.1,50.6z"/>
		</g>
		<g>
			<path d="M78.8,29.8c-5.2,5-10.4,9.9-15.5,14.9c26.9,58.6,29.3,127.2,5.6,190.6c1.4,1.4,2.8,2.7,4.3,4.1
				C102.6,174.6,105,99.2,78.8,29.8z"/>
		</g>
	</g>
</g>
<g id="cluster" class="st0">
	<path class="st1" d="M233.1,88.5c1.9,0,3.3-1.5,3.3-3.3V31.3c0-1.8-1.5-3.3-3.3-3.3h-53.8c-1.9,0-3.3,1.5-3.3,3.3v20.6h-16V31.3
		c0-1.8-1.5-3.3-3.3-3.3h-53.8c-1.9,0-3.3,1.5-3.3,3.3v20.6h-16V31.3c0-1.8-1.5-3.3-3.3-3.3H26.3c-1.9,0-3.3,1.5-3.3,3.3v53.8
		c0,1.8,1.5,3.3,3.3,3.3h20.3v13.6H26.3c-1.9,0-3.3,1.5-3.3,3.3v53.8c0,1.8,1.5,3.3,3.3,3.3h20.3v13.7H26.3c-1.9,0-3.3,1.5-3.3,3.3
		v53.8c0,1.9,1.5,3.3,3.3,3.3h53.8c1.9,0,3.3-1.5,3.3-3.3V214h16v19.5c0,1.9,1.5,3.3,3.3,3.3h53.8c1.9,0,3.3-1.5,3.3-3.3V214h16
		v19.5c0,1.9,1.5,3.3,3.3,3.3h53.8c1.9,0,3.3-1.5,3.3-3.3v-53.8c0-1.9-1.5-3.3-3.3-3.3h-18.9v-13.6h18.9c1.9,0,3.3-1.5,3.3-3.3
		v-53.8c0-1.8-1.5-3.3-3.3-3.3h-18.9V88.5H233.1z M182.6,34.6h47.1v47.1h-47.1V34.6z M106.1,34.6h47.2v47.1h-47.2V34.6z M29.6,34.6
		h47.2v47.1H29.6V34.6z M60,88.5h20.1c1.9,0,3.3-1.5,3.3-3.3V65.3h16v19.8c0,1.8,1.5,3.3,3.3,3.3h20.9v13.7h-20.9
		c-1.9,0-3.3,1.5-3.3,3.3V125h-16v-19.5c0-1.8-1.5-3.3-3.3-3.3H60V88.5z M106.1,156v-47.2h47.2V156H106.1z M29.6,108.8h47.2V156
		H29.6V108.8z M76.7,230.1H29.6V183h47.2V230.1z M83.4,200.5v-20.9c0-1.9-1.5-3.3-3.3-3.3H60v-13.7h20.1c1.9,0,3.3-1.5,3.3-3.3
		v-20.9h16v20.9c0,1.8,1.5,3.3,3.3,3.3h20.9v13.6h-20.9c-1.9,0-3.3,1.5-3.3,3.3v20.9H83.4z M153.3,230.1h-47.2V183h47.2V230.1z
		 M229.8,230.1h-47.1V183h47.1V230.1z M200.8,176.3h-21.5c-1.9,0-3.3,1.5-3.3,3.3v20.9h-16v-20.9c0-1.9-1.5-3.3-3.3-3.3h-19.5v-13.6
		h19.5c1.9,0,3.3-1.5,3.3-3.3v-20.9h16v20.9c0,1.8,1.5,3.3,3.3,3.3h21.5V176.3z M229.8,156h-47.1v-47.2h47.1V156z M200.8,102.1
		h-21.5c-1.9,0-3.3,1.5-3.3,3.3V125h-16v-19.5c0-1.8-1.5-3.3-3.3-3.3h-19.5V88.5h19.5c1.9,0,3.3-1.5,3.3-3.3V65.3h16v19.8
		c0,1.8,1.5,3.3,3.3,3.3h21.5V102.1z"/>
</g>
<g id="axis-orientation" class="st0">
	<path class="st1" d="M232.9,239.4l-11.2-23.6c-0.5-1-1.4-1.7-2.6-1.9c-1.1-0.1-2.2,0.3-3,1.1l-2.6,2.9c0,0-80.6-70.1-81.1-70.7V139
		h0V42.5h3.9c1.1,0,2.2-0.6,2.8-1.5c0.6-1,0.7-2.2,0.2-3.2l-10.8-23.9c-0.5-1.2-1.7-2-3.1-2c-1.2,0-2.5,0.8-3.1,2l-10.5,23.9
		c-0.5,1-0.4,2.2,0.3,3.2c0.6,0.9,1.7,1.5,2.8,1.5h3.9V139v8.3c0,0.2-81.1,70.7-81.1,70.7l-2.6-2.9c-0.7-0.9-1.9-1.2-3-1.1
		c-1.1,0.2-2.1,0.9-2.6,1.9l-11.2,23.6c-0.6,1.2-0.4,2.6,0.5,3.6c0.6,0.7,1.6,1.2,2.5,1.2c0.3,0,0.7,0,1-0.1l25.1-7.6
		c1.1-0.3,1.9-1.2,2.2-2.3c0.3-1.1,0.1-2.3-0.7-3.1l-2.6-2.9l79-68.8l79,68.8l-2.6,2.9c-0.7,0.9-1,2-0.7,3.1c0.3,1.1,1.2,2,2.2,2.3
		l25.1,7.6c0.3,0.1,0.6,0.1,1,0.1c1,0,1.9-0.4,2.5-1.2C233.3,242,233.5,240.6,232.9,239.4z"/>
</g>
<g id="axis-center" class="st0">
	<path class="st1" d="M226.9,119h-86.1L206,64.4c1.4-1.2,1.6-3.3,0.4-4.7c-1.2-1.4-3.3-1.6-4.7-0.4l-67.2,56.2V26.3
		c0-3.7-3-6.7-6.7-6.7c-3.7,0-6.7,3-6.7,6.7V119H28.5c-3.7,0-6.7,3-6.7,6.7c0,3.7,3,6.7,6.7,6.7h85.8l-64.7,54.1
		c-1.4,1.2-1.6,3.3-0.4,4.7c0.7,0.8,1.6,1.2,2.6,1.2c0.8,0,1.5-0.3,2.1-0.8l67.2-56.2v89.2c0,3.7,3,6.7,6.7,6.7c3.7,0,6.7-3,6.7-6.7
		v-92.2h92.4c3.7,0,6.7-3,6.7-6.7C233.6,122,230.6,119,226.9,119z"/>
</g>
<g id="function_x5F_gaussian" class="st0">
	
		<rect x="118.9" y="131.9" transform="matrix(0.7071 0.7071 -0.7071 0.7071 137.8138 -49.4411)" class="st2" width="19.4" height="19.4"/>
	<path class="st1" d="M128.6,158.7c-0.9,0-1.7-0.4-2.4-1L112.5,144c-1.3-1.3-1.3-3.4,0-4.7l13.8-13.8c0.6-0.6,1.5-1,2.4-1l0,0
		c0.9,0,1.7,0.4,2.4,1l13.8,13.8c1.3,1.3,1.3,3.4,0,4.7L131,157.8C130.3,158.4,129.5,158.7,128.6,158.7z M119.6,141.6l9,9l9-9l-9-9
		L119.6,141.6z"/>
	<path class="st1" d="M246.5,208.6c-20.9-1-35.7-6.1-46.4-14.1c0.1-1.5,0.1-3.1-0.1-4.7c-0.8-5.3-3.7-10-8-13.2
		c-2.8-2.1-6.1-3.2-9.5-3.6c-8.2-16.2-11.7-36.9-15.4-59.7c-3.5-21.5-9.7-36.5-18.3-44.8c0-0.8,0-1.7-0.1-2.5
		c-1.7-11-12.1-18.6-23.1-16.9c-9.8,1.5-16.8,9.9-17.1,19.4c-8.6,8.3-14.8,23.3-18.3,44.8c-3.7,22.8-7.2,43.4-15.4,59.6
		c-0.2,0-0.4,0-0.7,0c-10.5,1.6-17.7,11.1-16.9,21.5c-10.8,8-25.5,13.1-46.5,14.1c-3.7,0.2-6.5,3.3-6.4,7c0.2,3.6,3.1,6.4,6.7,6.4
		c0.1,0,0.2,0,0.3,0c22.7-1.1,39.2-6.5,51.6-14.9c3.7,3.7,8.8,6.1,14.3,6.1c1,0,2.1-0.1,3.1-0.2c11-1.7,18.6-12.1,16.9-23.1
		c-0.8-5.3-3.7-10-8-13.2c-0.3-0.2-0.6-0.3-0.9-0.5c8.1-17.7,11.6-38.9,15.1-60.6c2.8-17.1,6.9-26.9,10.6-32.6c3.7,4,9,6.4,14.6,6.4
		c1,0,2.1-0.1,3.1-0.2c4.6-0.7,8.6-3,11.5-6.2c3.7,5.7,7.8,15.5,10.6,32.6c3.5,21.7,7.1,42.9,15.1,60.6c-6.4,4.2-10.2,11.9-8.9,20
		c0.8,5.3,3.7,10,8,13.2c3.5,2.6,7.6,3.9,11.9,3.9c1,0,2.1-0.1,3.1-0.2c4.4-0.7,8.3-2.8,11.2-5.8c12.3,8.3,28.9,13.7,51.6,14.9
		c0.1,0,0.2,0,0.3,0c3.5,0,6.5-2.8,6.7-6.4C253,212,250.2,208.8,246.5,208.6z M90.6,190.9c1.1,7.4-3.9,14.3-11.3,15.4
		c-7.4,1.1-14.3-3.9-15.4-11.3c-1.1-7.4,3.9-14.3,11.3-15.4c0.7-0.1,1.4-0.2,2.1-0.2c2.8,0,5.6,0.9,7.9,2.6
		C88.1,184.2,90,187.4,90.6,190.9z M130.7,82.5c-7.3,1.1-14.3-3.9-15.4-11.3c-1.1-7.4,3.9-14.3,11.3-15.4c0.7-0.1,1.4-0.2,2.1-0.2
		c6.6,0,12.3,4.8,13.4,11.4C143.1,74.4,138,81.4,130.7,82.5z M182,206.4c-7.4,1.1-14.3-3.9-15.4-11.3c-1.1-7.4,3.9-14.3,11.3-15.4
		c0.7-0.1,1.4-0.2,2.1-0.2c2.8,0,5.6,0.9,7.9,2.6c2.9,2.1,4.8,5.3,5.4,8.8C194.5,198.3,189.4,205.2,182,206.4z"/>
</g>
<g id="parallel-coordinates" class="st0">
	<path class="st1" d="M227.1,30.3c-3.7,0-6.7,3-6.7,6.7v46.1L134.5,51V37c0-3.7-3-6.7-6.7-6.7s-6.7,3-6.7,6.7v11.1L39,68.5V37
		c0-3.7-3-6.7-6.7-6.7c-3.7,0-6.7,3-6.7,6.7v191.2c0,3.7,3,6.7,6.7,6.7c3.7,0,6.7-3,6.7-6.7v-33l82,15.4v17.7c0,3.7,3,6.7,6.7,6.7
		s6.7-3,6.7-6.7V208l42.4-34.4l43.5,35.3v19.2c0,3.7,3,6.7,6.7,6.7c3.7,0,6.7-3,6.7-6.7V37C233.8,33.3,230.8,30.3,227.1,30.3z
		 M220.4,90.3v39.5l-43.5,35.3l-42.4-34.4V58.1L220.4,90.3z M121.1,55v73.6l-82,20.5V75.4L121.1,55z M39,188.3V156l82-20.5v68.2
		L39,188.3z M134.5,199.4v-60.1l37.1,30.1L134.5,199.4z M182.2,169.4l38.2-31v62L182.2,169.4z"/>
</g>
<g id="function-linear" class="st0">
	<path class="st1" d="M249.8,45.9C249.8,45.9,249.8,45.9,249.8,45.9c-1.7-11-12-18.6-23.1-16.9c-5.3,0.8-10,3.7-13.2,8.1
		c-1.2,1.7-2.1,3.5-2.7,5.5h-22.9c-3.1-9.1-12.3-15-22.2-13.5c-5.3,0.8-10,3.7-13.2,8.1c-3.2,4.4-4.5,9.7-3.7,15
		c0.8,5,3.3,9.3,7.2,12.4l-63.8,129c-1.9-0.3-3.9-0.4-6-0.1c-7.6,1.2-13.5,6.5-15.9,13.3H45c-3.1-9-12.3-14.8-22.2-13.3
		c-5.3,0.8-10,3.7-13.2,8.1c-3.2,4.4-4.5,9.7-3.7,15c0.8,5.3,3.7,10,8,13.2c3.5,2.6,7.6,3.9,11.9,3.9c1,0,2.1-0.1,3.2-0.2
		c7.6-1.2,13.4-6.5,15.9-13.2h25.3c2.8,8,10.5,13.5,19,13.5c1,0,2.1-0.1,3.1-0.2c5.3-0.8,10-3.7,13.2-8.1c3.2-4.4,4.5-9.7,3.7-15
		c-0.6-4.2-2.5-7.8-5.2-10.7l64.5-130.5c0,0,0.1,0,0.1,0c1,0,2.1-0.1,3.2-0.2c7.5-1.2,13.3-6.4,15.8-13h23.2c1.4,3.7,3.8,7,7.1,9.4
		c3.5,2.6,7.6,3.9,11.9,3.9c1,0,2.1-0.1,3.2-0.2C244,67.3,251.6,57,249.8,45.9z M28,226.9c-3.6,0.5-7.2-0.3-10.1-2.4
		s-4.8-5.3-5.4-8.9c-0.6-3.6,0.3-7.2,2.4-10.1c2.1-2.9,5.3-4.8,8.9-5.4c0.7-0.1,1.4-0.2,2.1-0.2c6.6,0,12.3,4.8,13.4,11.5
		C40.5,218.9,35.4,225.8,28,226.9z M100.2,221.6c-2.1,2.9-5.3,4.8-8.9,5.4C84,228.1,77,223,75.9,215.6c-1.1-7.4,3.9-14.3,11.3-15.5
		c0.7-0.1,1.4-0.2,2.1-0.2c6.6,0,12.3,4.8,13.4,11.5c0,0,0,0,0,0C103.2,215.1,102.3,218.6,100.2,221.6z M170.8,62.4
		c-3.6,0.5-7.2-0.3-10.1-2.4c-2.9-2.1-4.8-5.3-5.4-8.9c-0.6-3.6,0.3-7.2,2.4-10.1s5.3-4.8,8.9-5.4c0.7-0.1,1.4-0.2,2.1-0.2
		c6.6,0,12.3,4.8,13.4,11.5C183.3,54.4,178.2,61.3,170.8,62.4z M231.9,62.4c-3.6,0.5-7.2-0.3-10.1-2.4c-2.9-2.1-4.8-5.3-5.4-8.9
		c-0.6-3.6,0.3-7.2,2.4-10.1s5.3-4.8,8.9-5.4c0.7-0.1,1.4-0.2,2.1-0.2c6.6,0,12.3,4.8,13.4,11.5C244.4,54.3,239.3,61.3,231.9,62.4z"
		/>
</g>
<g id="bounding-box">
	<path d="M236.6,161.9c0-0.3,0.2-0.5,0.2-0.8V36.8c0-0.3-0.1-0.6-0.2-1c-0.1-0.5-0.1-0.9-0.3-1.4c-0.2-0.5-0.5-0.8-0.7-1.3
		c-0.2-0.3-0.3-0.6-0.5-0.8c-0.1-0.1-0.1-0.1-0.2-0.1c-0.3-0.4-0.8-0.6-1.2-0.9c-0.3-0.2-0.6-0.5-0.9-0.6c-0.4-0.2-0.7-0.2-1.1-0.3
		c-0.5-0.1-0.9-0.3-1.4-0.3c-0.1,0-0.1,0-0.2,0h-121c-0.3,0-0.5,0.1-0.7,0.1c-0.4,0-0.9,0.1-1.3,0.3c-0.5,0.1-0.9,0.3-1.3,0.6
		c-0.2,0.1-0.4,0.2-0.7,0.3L26.5,88.4c-0.1,0.1-0.2,0.3-0.3,0.4c-0.4,0.3-0.7,0.6-0.9,1c-0.3,0.3-0.5,0.6-0.7,1
		c-0.2,0.4-0.3,0.8-0.4,1.2c-0.1,0.4-0.2,0.9-0.3,1.3c0,0.2-0.1,0.3-0.1,0.5v134.4c0,3.7,3,6.7,6.7,6.7h134.4c0.9,0,1.8-0.2,2.6-0.5
		c0.8-0.3,1.6-0.9,2.2-1.5c0,0,0,0,0,0l65.2-67.1c0,0,0,0,0,0l0.1-0.1c0.2-0.2,0.2-0.4,0.4-0.6c0.4-0.5,0.8-1,1-1.6
		C236.5,163,236.6,162.5,236.6,161.9z M171.5,164.4h46l-46,47.3V164.4z M37.1,218.1V100.6h68.6v57.1v1.8L37.1,218.1z M162.3,87.1
		h-49.8V43.5h99.8L162.3,87.1z M105.7,47.5v39.6H51.1L105.7,47.5z M112.4,157.7v-57.1h45.6v57.1H112.4z M171.5,96.9l51.9-45.3v106.1
		h-51.9V96.9z M43.4,221.5l66.9-57.1h2.1h45.6v57.1H43.4z"/>
</g>
<g id="ruler" class="st0">
	<g class="st1">
		<path d="M171,246.5H88.6c-3.7,0-6.7-3-6.7-6.7V13.6c0-3.7,3-6.7,6.7-6.7H171c3.7,0,6.7,3,6.7,6.7v226.1
			C177.7,243.4,174.7,246.5,171,246.5z M95.3,233h68.9V20.3H95.3V233z"/>
	</g>
	<g class="st1">
		<rect x="98.6" y="35.4" width="24.3" height="6.7"/>
	</g>
	<g class="st1">
		<rect x="98.6" y="60.7" width="38.5" height="6.7"/>
	</g>
	<g class="st1">
		<rect x="98.6" y="86" width="24.3" height="6.7"/>
	</g>
	<g class="st1">
		<rect x="98.6" y="111.2" width="24.3" height="6.7"/>
	</g>
	<g class="st1">
		<rect x="98.6" y="136.5" width="38.5" height="6.7"/>
	</g>
	<g class="st1">
		<rect x="98.6" y="161.8" width="24.3" height="6.7"/>
	</g>
	<g class="st1">
		<rect x="98.6" y="187" width="24.3" height="6.7"/>
	</g>
	<g class="st1">
		<rect x="98.6" y="212.3" width="38.5" height="6.7"/>
	</g>
</g>
</svg>
