<?xml version="1.0" encoding="utf-8"?>
<!-- Generator: Adobe Illustrator 19.2.0, SVG Export Plug-In . SVG Version: 6.00 Build 0)  -->
<!DOCTYPE svg PUBLIC "-//W3C//DTD SVG 1.1//EN" "http://www.w3.org/Graphics/SVG/1.1/DTD/svg11.dtd">
<svg version="1.1" xmlns="http://www.w3.org/2000/svg" xmlns:xlink="http://www.w3.org/1999/xlink" x="0px" y="0px"
	 viewBox="0 0 256 256" style="enable-background:new 0 0 256 256;" xml:space="preserve">
<g id="cluster">
	<path d="M233.1,88.5c1.9,0,3.3-1.5,3.3-3.3V31.3c0-1.8-1.5-3.3-3.3-3.3h-53.8c-1.9,0-3.3,1.5-3.3,3.3v20.6h-16V31.3
		c0-1.8-1.5-3.3-3.3-3.3h-53.8c-1.9,0-3.3,1.5-3.3,3.3v20.6h-16V31.3c0-1.8-1.5-3.3-3.3-3.3H26.3c-1.9,0-3.3,1.5-3.3,3.3v53.8
		c0,1.8,1.5,3.3,3.3,3.3h20.3v13.6H26.3c-1.9,0-3.3,1.5-3.3,3.3v53.8c0,1.8,1.5,3.3,3.3,3.3h20.3v13.7H26.3c-1.9,0-3.3,1.5-3.3,3.3
		v53.8c0,1.9,1.5,3.3,3.3,3.3h53.8c1.9,0,3.3-1.5,3.3-3.3V214h16v19.5c0,1.9,1.5,3.3,3.3,3.3h53.8c1.9,0,3.3-1.5,3.3-3.3V214h16
		v19.5c0,1.9,1.5,3.3,3.3,3.3h53.8c1.9,0,3.3-1.5,3.3-3.3v-53.8c0-1.9-1.5-3.3-3.3-3.3h-18.9v-13.6h18.9c1.9,0,3.3-1.5,3.3-3.3
		v-53.8c0-1.8-1.5-3.3-3.3-3.3h-18.9V88.5H233.1z M182.6,34.6h47.1v47.1h-47.1V34.6z M106.1,34.6h47.2v47.1h-47.2V34.6z M29.6,34.6
		h47.2v47.1H29.6V34.6z M60,88.5h20.1c1.9,0,3.3-1.5,3.3-3.3V65.3h16v19.8c0,1.8,1.5,3.3,3.3,3.3h20.9v13.7h-20.9
		c-1.9,0-3.3,1.5-3.3,3.3V125h-16v-19.5c0-1.8-1.5-3.3-3.3-3.3H60V88.5z M106.1,156v-47.2h47.2V156H106.1z M29.6,108.8h47.2V156
		H29.6V108.8z M76.7,230.1H29.6V183h47.2V230.1z M83.4,200.5v-20.9c0-1.9-1.5-3.3-3.3-3.3H60v-13.7h20.1c1.9,0,3.3-1.5,3.3-3.3
		v-20.9h16v20.9c0,1.8,1.5,3.3,3.3,3.3h20.9v13.6h-20.9c-1.9,0-3.3,1.5-3.3,3.3v20.9H83.4z M153.3,230.1h-47.2V183h47.2V230.1z
		 M229.8,230.1h-47.1V183h47.1V230.1z M200.8,176.3h-21.5c-1.9,0-3.3,1.5-3.3,3.3v20.9h-16v-20.9c0-1.9-1.5-3.3-3.3-3.3h-19.5v-13.6
		h19.5c1.9,0,3.3-1.5,3.3-3.3v-20.9h16v20.9c0,1.8,1.5,3.3,3.3,3.3h21.5V176.3z M229.8,156h-47.1v-47.2h47.1V156z M200.8,102.1
		h-21.5c-1.9,0-3.3,1.5-3.3,3.3V125h-16v-19.5c0-1.8-1.5-3.3-3.3-3.3h-19.5V88.5h19.5c1.9,0,3.3-1.5,3.3-3.3V65.3h16v19.8
		c0,1.8,1.5,3.3,3.3,3.3h21.5V102.1z"/>
</g>
</svg>
