<?xml version="1.0" encoding="utf-8"?>
<!-- Generator: Adobe Illustrator 19.2.0, SVG Export Plug-In . SVG Version: 6.00 Build 0)  -->
<!DOCTYPE svg PUBLIC "-//W3C//DTD SVG 1.1//EN" "http://www.w3.org/Graphics/SVG/1.1/DTD/svg11.dtd">
<svg version="1.1" xmlns="http://www.w3.org/2000/svg" xmlns:xlink="http://www.w3.org/1999/xlink" x="0px" y="0px"
	 viewBox="0 0 256 256" style="enable-background:new 0 0 256 256;" xml:space="preserve">
<g id="function-linear">
	<path d="M249.8,45.9C249.8,45.9,249.8,45.9,249.8,45.9c-1.7-11-12-18.6-23.1-16.9c-5.3,0.8-10,3.7-13.2,8.1
		c-1.2,1.7-2.1,3.5-2.7,5.5h-22.9c-3.1-9.1-12.3-15-22.2-13.5c-5.3,0.8-10,3.7-13.2,8.1c-3.2,4.4-4.5,9.7-3.7,15
		c0.8,5,3.3,9.3,7.2,12.4l-63.8,129c-1.9-0.3-3.9-0.4-6-0.1c-7.6,1.2-13.5,6.5-15.9,13.3H45c-3.1-9-12.3-14.8-22.2-13.3
		c-5.3,0.8-10,3.7-13.2,8.1c-3.2,4.4-4.5,9.7-3.7,15c0.8,5.3,3.7,10,8,13.2c3.5,2.6,7.6,3.9,11.9,3.9c1,0,2.1-0.1,3.2-0.2
		c7.6-1.2,13.4-6.5,15.9-13.2h25.3c2.8,8,10.5,13.5,19,13.5c1,0,2.1-0.1,3.1-0.2c5.3-0.8,10-3.7,13.2-8.1c3.2-4.4,4.5-9.7,3.7-15
		c-0.6-4.2-2.5-7.8-5.2-10.7l64.5-130.5c0,0,0.1,0,0.1,0c1,0,2.1-0.1,3.2-0.2c7.5-1.2,13.3-6.4,15.8-13h23.2c1.4,3.7,3.8,7,7.1,9.4
		c3.5,2.6,7.6,3.9,11.9,3.9c1,0,2.1-0.1,3.2-0.2C244,67.3,251.6,57,249.8,45.9z M28,226.9c-3.6,0.5-7.2-0.3-10.1-2.4
		s-4.8-5.3-5.4-8.9c-0.6-3.6,0.3-7.2,2.4-10.1c2.1-2.9,5.3-4.8,8.9-5.4c0.7-0.1,1.4-0.2,2.1-0.2c6.6,0,12.3,4.8,13.4,11.5
		C40.5,218.9,35.4,225.8,28,226.9z M100.2,221.6c-2.1,2.9-5.3,4.8-8.9,5.4C84,228.1,77,223,75.9,215.6c-1.1-7.4,3.9-14.3,11.3-15.5
		c0.7-0.1,1.4-0.2,2.1-0.2c6.6,0,12.3,4.8,13.4,11.5c0,0,0,0,0,0C103.2,215.1,102.3,218.6,100.2,221.6z M170.8,62.4
		c-3.6,0.5-7.2-0.3-10.1-2.4c-2.9-2.1-4.8-5.3-5.4-8.9c-0.6-3.6,0.3-7.2,2.4-10.1s5.3-4.8,8.9-5.4c0.7-0.1,1.4-0.2,2.1-0.2
		c6.6,0,12.3,4.8,13.4,11.5C183.3,54.4,178.2,61.3,170.8,62.4z M231.9,62.4c-3.6,0.5-7.2-0.3-10.1-2.4c-2.9-2.1-4.8-5.3-5.4-8.9
		c-0.6-3.6,0.3-7.2,2.4-10.1s5.3-4.8,8.9-5.4c0.7-0.1,1.4-0.2,2.1-0.2c6.6,0,12.3,4.8,13.4,11.5C244.4,54.3,239.3,61.3,231.9,62.4z"
		/>
</g>
</svg>
