<?xml version="1.0" encoding="utf-8"?>
<!-- Generator: Adobe Illustrator 19.2.0, SVG Export Plug-In . SVG Version: 6.00 Build 0)  -->
<!DOCTYPE svg PUBLIC "-//W3C//DTD SVG 1.1//EN" "http://www.w3.org/Graphics/SVG/1.1/DTD/svg11.dtd">
<svg version="1.1" xmlns="http://www.w3.org/2000/svg" xmlns:xlink="http://www.w3.org/1999/xlink" x="0px" y="0px"
	 viewBox="0 0 256 256" style="enable-background:new 0 0 256 256;" xml:space="preserve">
<g id="function_x5F_gaussian">
	<rect x="118.9" y="131.9" transform="matrix(0.7071 0.7071 -0.7071 0.7071 137.8138 -49.4411)" fill="FFFFFF" width="19.4" height="19.4"/>
	<path d="M128.6,158.7c-0.9,0-1.7-0.4-2.4-1L112.5,144c-1.3-1.3-1.3-3.4,0-4.7l13.8-13.8c0.6-0.6,1.5-1,2.4-1l0,0
		c0.9,0,1.7,0.4,2.4,1l13.8,13.8c1.3,1.3,1.3,3.4,0,4.7L131,157.8C130.3,158.4,129.5,158.7,128.6,158.7z M119.6,141.6l9,9l9-9l-9-9
		L119.6,141.6z"/>
	<path d="M246.5,208.6c-20.9-1-35.7-6.1-46.4-14.1c0.1-1.5,0.1-3.1-0.1-4.7c-0.8-5.3-3.7-10-8-13.2c-2.8-2.1-6.1-3.2-9.5-3.6
		c-8.2-16.2-11.7-36.9-15.4-59.7c-3.5-21.5-9.7-36.5-18.3-44.8c0-0.8,0-1.7-0.1-2.5c-1.7-11-12.1-18.6-23.1-16.9
		c-9.8,1.5-16.8,9.9-17.1,19.4c-8.6,8.3-14.8,23.3-18.3,44.8c-3.7,22.8-7.2,43.4-15.4,59.6c-0.2,0-0.4,0-0.7,0
		c-10.5,1.6-17.7,11.1-16.9,21.5c-10.8,8-25.5,13.1-46.5,14.1c-3.7,0.2-6.5,3.3-6.4,7c0.2,3.6,3.1,6.4,6.7,6.4c0.1,0,0.2,0,0.3,0
		c22.7-1.1,39.2-6.5,51.6-14.9c3.7,3.7,8.8,6.1,14.3,6.1c1,0,2.1-0.1,3.1-0.2c11-1.7,18.6-12.1,16.9-23.1c-0.8-5.3-3.7-10-8-13.2
		c-0.3-0.2-0.6-0.3-0.9-0.5c8.1-17.7,11.6-38.9,15.1-60.6c2.8-17.1,6.9-26.9,10.6-32.6c3.7,4,9,6.4,14.6,6.4c1,0,2.1-0.1,3.1-0.2
		c4.6-0.7,8.6-3,11.5-6.2c3.7,5.7,7.8,15.5,10.6,32.6c3.5,21.7,7.1,42.9,15.1,60.6c-6.4,4.2-10.2,11.9-8.9,20c0.8,5.3,3.7,10,8,13.2
		c3.5,2.6,7.6,3.9,11.9,3.9c1,0,2.1-0.1,3.1-0.2c4.4-0.7,8.3-2.8,11.2-5.8c12.3,8.3,28.9,13.7,51.6,14.9c0.1,0,0.2,0,0.3,0
		c3.5,0,6.5-2.8,6.7-6.4C253,212,250.2,208.8,246.5,208.6z M90.6,190.9c1.1,7.4-3.9,14.3-11.3,15.4c-7.4,1.1-14.3-3.9-15.4-11.3
		c-1.1-7.4,3.9-14.3,11.3-15.4c0.7-0.1,1.4-0.2,2.1-0.2c2.8,0,5.6,0.9,7.9,2.6C88.1,184.2,90,187.4,90.6,190.9z M130.7,82.5
		c-7.3,1.1-14.3-3.9-15.4-11.3c-1.1-7.4,3.9-14.3,11.3-15.4c0.7-0.1,1.4-0.2,2.1-0.2c6.6,0,12.3,4.8,13.4,11.4
		C143.1,74.4,138,81.4,130.7,82.5z M182,206.4c-7.4,1.1-14.3-3.9-15.4-11.3c-1.1-7.4,3.9-14.3,11.3-15.4c0.7-0.1,1.4-0.2,2.1-0.2
		c2.8,0,5.6,0.9,7.9,2.6c2.9,2.1,4.8,5.3,5.4,8.8C194.5,198.3,189.4,205.2,182,206.4z"/>
</g>
</svg>
