<?xml version="1.0" encoding="utf-8"?>
<!-- Generator: Adobe Illustrator 19.2.0, SVG Export Plug-In . SVG Version: 6.00 Build 0)  -->
<!DOCTYPE svg PUBLIC "-//W3C//DTD SVG 1.1//EN" "http://www.w3.org/Graphics/SVG/1.1/DTD/svg11.dtd">
<svg version="1.1" xmlns="http://www.w3.org/2000/svg" xmlns:xlink="http://www.w3.org/1999/xlink" x="0px" y="0px"
	 viewBox="0 0 256 256" style="enable-background:new 0 0 256 256;" xml:space="preserve">
<g id="kitware">
	<g>
		<g>
			<path d="M216.9,77c-6.2,0-12.3,0-18.5,0c-66.9,18.7-76.9,102.5-30,142.9c-54.2-36.8-44.4-130,29.5-149.8c-6.2,0-12.3,0-18.5,0
				c-66.9,18.7-76.9,102.5-30,142.9c-54.2-36.8-44.4-130,29.5-149.8c-6.2,0-12.3,0-18.5,0c-21,5.9-36.3,18.2-46.1,33.5
				c-0.7-28.8-5.2-58.2-13.9-87.7c-5.2,5-10.4,9.9-15.6,14.9c25.8,73.8,21.6,151.9-10.2,217.1c1.4,1.4,2.8,2.7,4.3,4.1
				c12.7-22.5,22-47.1,28-73c8.8,23.8,28.3,44.2,58.5,52.3c0.3,0,0.6,0,1,0c5.5,2.8,11.4,5.2,17.9,6.9c0.3,0,0.6,0,1,0
				c5.5,2.8,11.4,5.2,17.9,6.9c2.8,0,5.7,0,8.5,0C131.6,215.7,133.3,99.4,216.9,77z"/>
		</g>
		<g>
			<path d="M57.1,50.6c-5.2,5-10.4,9.9-15.5,14.9c28,43.5,37,102.5,21.4,164c1.4,1.4,2.8,2.7,4.3,4.1
				C88.5,170.7,84.3,104.9,57.1,50.6z"/>
		</g>
		<g>
			<path d="M78.8,29.8c-5.2,5-10.4,9.9-15.5,14.9c26.9,58.6,29.3,127.2,5.6,190.6c1.4,1.4,2.8,2.7,4.3,4.1
				C102.6,174.6,105,99.2,78.8,29.8z"/>
		</g>
	</g>
</g>
</svg>
