<?xml version="1.0" encoding="utf-8"?>
<!-- Generator: Adobe Illustrator 19.2.0, SVG Export Plug-In . SVG Version: 6.00 Build 0)  -->
<!DOCTYPE svg PUBLIC "-//W3C//DTD SVG 1.1//EN" "http://www.w3.org/Graphics/SVG/1.1/DTD/svg11.dtd">
<svg version="1.1" xmlns="http://www.w3.org/2000/svg" xmlns:xlink="http://www.w3.org/1999/xlink" x="0px" y="0px"
	 viewBox="0 0 256 256" style="enable-background:new 0 0 256 256;" xml:space="preserve">
<g id="parallel-coordinates">
	<path d="M227.1,30.3c-3.7,0-6.7,3-6.7,6.7v46.1L134.5,51V37c0-3.7-3-6.7-6.7-6.7s-6.7,3-6.7,6.7v11.1L39,68.5V37
		c0-3.7-3-6.7-6.7-6.7c-3.7,0-6.7,3-6.7,6.7v191.2c0,3.7,3,6.7,6.7,6.7c3.7,0,6.7-3,6.7-6.7v-33l82,15.4v17.7c0,3.7,3,6.7,6.7,6.7
		s6.7-3,6.7-6.7V208l42.4-34.4l43.5,35.3v19.2c0,3.7,3,6.7,6.7,6.7c3.7,0,6.7-3,6.7-6.7V37C233.8,33.3,230.8,30.3,227.1,30.3z
		 M220.4,90.3v39.5l-43.5,35.3l-42.4-34.4V58.1L220.4,90.3z M121.1,55v73.6l-82,20.5V75.4L121.1,55z M39,188.3V156l82-20.5v68.2
		L39,188.3z M134.5,199.4v-60.1l37.1,30.1L134.5,199.4z M182.2,169.4l38.2-31v62L182.2,169.4z"/>
</g>
</svg>
