<?xml version="1.0" encoding="utf-8"?>
<!-- Generator: Adobe Illustrator 19.2.0, SVG Export Plug-In . SVG Version: 6.00 Build 0)  -->
<!DOCTYPE svg PUBLIC "-//W3C//DTD SVG 1.1//EN" "http://www.w3.org/Graphics/SVG/1.1/DTD/svg11.dtd">
<svg version="1.1" xmlns="http://www.w3.org/2000/svg" xmlns:xlink="http://www.w3.org/1999/xlink" x="0px" y="0px"
	 viewBox="0 0 256 256" style="enable-background:new 0 0 256 256;" xml:space="preserve">
<g id="ruler">
	<g>
		<path d="M171,246.5H88.6c-3.7,0-6.7-3-6.7-6.7V13.6c0-3.7,3-6.7,6.7-6.7H171c3.7,0,6.7,3,6.7,6.7v226.1
			C177.7,243.4,174.7,246.5,171,246.5z M95.3,233h68.9V20.3H95.3V233z"/>
	</g>
	<g>
		<rect x="98.6" y="35.4" width="24.3" height="6.7"/>
	</g>
	<g>
		<rect x="98.6" y="60.7" width="38.5" height="6.7"/>
	</g>
	<g>
		<rect x="98.6" y="86" width="24.3" height="6.7"/>
	</g>
	<g>
		<rect x="98.6" y="111.2" width="24.3" height="6.7"/>
	</g>
	<g>
		<rect x="98.6" y="136.5" width="38.5" height="6.7"/>
	</g>
	<g>
		<rect x="98.6" y="161.8" width="24.3" height="6.7"/>
	</g>
	<g>
		<rect x="98.6" y="187" width="24.3" height="6.7"/>
	</g>
	<g>
		<rect x="98.6" y="212.3" width="38.5" height="6.7"/>
	</g>
</g>
</svg>
