<?xml version="1.0" encoding="UTF-8" standalone="no"?>
<svg width="512px" height="512px" viewBox="0 0 512 512" version="1.1" xmlns="http://www.w3.org/2000/svg" xmlns:xlink="http://www.w3.org/1999/xlink">
    <!-- Generator: Sketch 3.7.2 (28276) - http://www.bohemiancoding.com/sketch -->
    <title>Palette</title>
    <desc>Created with Sketch.</desc>
    <defs></defs>
    <g id="Page-1" stroke="none" stroke-width="1" fill="none" fill-rule="evenodd">
        <g id="Palette" stroke="#979797">
            <g id="Group" transform="translate(256.159608, 256.009325) rotate(-313.000000) translate(-256.159608, -256.009325) translate(-21.340392, 56.509325)">
                <path d="M277.786238,398.124535 C366.308006,398.124535 445.727672,369.641362 496.027484,324.480577 C527.442223,296.275415 418.437497,324.371724 436.018905,272.861824 C453.600312,221.351925 526.914979,254.744908 539.163162,229.546681 C551.411345,204.348455 554.400381,185.441161 554.400381,168.671345 C554.400381,61.9908502 431.20334,11.8002873 277.786238,11.8002873 C124.369135,11.8002873 3.58113539e-12,98.2819159 3.58113539e-12,204.962411 C3.58113539e-12,311.642906 124.369135,398.124535 277.786238,398.124535 Z M380.930495,346.614635 C399.703051,346.614635 414.921216,331.938965 414.921216,313.835608 C414.921216,295.732251 399.703051,281.056581 380.930495,281.056581 C362.157938,281.056581 346.939774,295.732251 346.939774,313.835608 C346.939774,331.938965 362.157938,346.614635 380.930495,346.614635 Z" id="Combined-Shape" stroke-width="11" fill="#E1E2DD"></path>
                <path d="M384.446776,177.784031 C384.446776,177.784031 395.929886,208.143372 408.356098,213.921325 C422.333175,220.4204 437.942356,202.423095 448.204967,202.423095 C461.515301,202.423095 452.986831,189.282261 475.302198,177.784031 C486.498987,172.014767 505.584624,182.797089 511.963157,177.784031 C518.297137,172.80599 539.060389,161.357988 526.30875,128.505903 C513.557112,95.6538183 486.319224,118.075836 475.302198,107.152048 C463.70138,95.6494093 466.265744,80.87038 448.204967,80.87038 C431.258284,80.87038 421.107736,107.152048 421.107736,107.152048 C421.107736,107.152048 384.446776,124.235005 384.446776,141.646737 L384.446776,177.784031 Z" id="Oval-3" stroke-width="3" fill="#41369F"></path>
                <path d="M125.2411,170.146425 C125.2411,170.146425 139.801095,198.148345 155.556896,203.477636 C173.279115,209.472054 193.070758,192.872251 206.083223,192.872251 C222.960046,192.872251 212.146382,180.75181 240.441125,170.146425 C254.638081,164.825148 278.837691,174.770216 286.925346,170.146425 C294.956507,165.554932 321.283248,154.995875 305.114824,124.694774 C288.946399,94.3936734 254.410151,115.074608 240.441125,104.999059 C225.731882,94.3896067 228.983364,80.7581781 206.083223,80.7581781 C184.595697,80.7581781 171.725321,104.999059 171.725321,104.999059 C171.725321,104.999059 125.2411,120.755513 125.2411,136.815214 L125.2411,170.146425 Z" id="Oval-3" stroke-width="3" fill="#F8F8EC" transform="translate(217.754248, 142.770452) scale(-1, -1) rotate(-289.000000) translate(-217.754248, -142.770452) "></path>
                <path d="M171.125699,345.191205 C171.125699,345.191205 183.208329,375.550546 196.283298,381.328499 C210.990103,387.827574 227.414221,369.830269 238.212631,369.830269 C252.217882,369.830269 243.244151,356.689435 266.724577,345.191205 C278.505937,339.421941 298.588012,350.204263 305.299562,345.191205 C311.964231,340.213164 333.811508,328.765162 320.394122,295.913077 C306.976736,263.060992 278.316789,285.48301 266.724577,274.559222 C254.518094,263.056583 257.21634,248.277554 238.212631,248.277554 C220.381182,248.277554 209.700685,274.559222 209.700685,274.559222 C209.700685,274.559222 171.125699,291.642179 171.125699,309.053911 L171.125699,345.191205 Z" id="Oval-3" stroke-width="3" fill="#BD1D00" transform="translate(247.897845, 315.510508) scale(-1, 1) translate(-247.897845, -315.510508) "></path>
                <path d="M51.5721285,303.943193 C51.5721285,303.943193 60.8188059,332.382984 70.8249082,337.79561 C82.0798318,343.883764 94.6489937,327.024386 102.912874,327.024386 C113.630909,327.024386 106.76343,314.714417 124.732691,303.943193 C133.748811,298.538706 149.11736,308.639287 154.25362,303.943193 C159.354004,299.279902 176.073437,288.555731 165.805288,257.780807 C155.537139,227.005884 133.604059,248.010209 124.732691,237.777107 C115.391231,227.001753 117.456163,213.157168 102.912874,213.157168 C89.2667012,213.157168 81.0930574,237.777107 81.0930574,237.777107 C81.0930574,237.777107 51.5721285,253.779948 51.5721285,270.090777 L51.5721285,303.943193 Z" id="Oval-3" stroke-width="3" fill="#FC8900" transform="translate(110.324841, 276.139138) scale(-1, -1) translate(-110.324841, -276.139138) "></path>
                <path d="M49.2788314,219.707702 C60.533755,230.947777 73.1029169,217.032173 81.3667976,219.857824 C92.0848321,223.522618 85.2173535,205.83408 103.186615,195.768497 C112.202734,189.738067 127.571283,207.512987 132.707543,201.283944 C137.807927,194.777642 154.52736,179.01866 144.259211,127.601504 C133.991062,80.4311483 112.057982,117.635797 103.186615,105.32479 C93.8451541,93.6801407 95.9100861,74.7508377 81.3667976,80.9057437 C67.7206244,86.680979 59.5469806,116.574084 59.5469806,116.574084 C59.5469806,116.574084 30.0260517,138.191357 30.0260517,152.468399 L30.0260517,182.09978 C30.0260517,182.09978 39.2727291,210.488077 49.2788314,219.707702 Z" id="Oval-3" stroke-width="3" fill="#F5C12D" transform="translate(88.778765, 151.934088) rotate(-329.000000) translate(-88.778765, -151.934088) "></path>
                <path d="M251.508133,110.689465 C251.508133,110.689465 262.991242,141.048806 275.417454,146.826758 C289.394531,153.325834 305.003713,135.328529 315.266323,135.328529 C328.576657,135.328529 320.048188,122.187694 342.363554,110.689465 C353.560343,104.9202 372.64598,115.702522 379.024514,110.689465 C385.358493,105.711424 406.121745,94.2634222 393.370107,61.4113371 C380.618469,28.559252 353.380581,50.98127 342.363554,40.0574817 C330.762737,28.554843 333.3271,13.7758137 315.266323,13.7758137 C298.319641,13.7758137 288.169092,40.0574817 288.169092,40.0574817 C288.169092,40.0574817 251.508133,57.1404382 251.508133,74.5521711 L251.508133,110.689465 Z" id="Oval-3" stroke-width="3" fill="#31D0E6" transform="translate(324.470973, 81.008767) scale(1, -1) rotate(-348.000000) translate(-324.470973, -81.008767) "></path>
            </g>
        </g>
    </g>
</svg>