<?xml version="1.0" encoding="UTF-8" standalone="no"?>
<!-- Created with Inkscape (http://www.inkscape.org/) -->

<svg
   xmlns:dc="http://purl.org/dc/elements/1.1/"
   xmlns:cc="http://creativecommons.org/ns#"
   xmlns:rdf="http://www.w3.org/1999/02/22-rdf-syntax-ns#"
   xmlns:svg="http://www.w3.org/2000/svg"
   xmlns="http://www.w3.org/2000/svg"
   xmlns:sodipodi="http://sodipodi.sourceforge.net/DTD/sodipodi-0.dtd"
   xmlns:inkscape="http://www.inkscape.org/namespaces/inkscape"
   width="64mm"
   height="64mm"
   viewBox="0 0 226.77165 226.77165"
   id="svg2"
   version="1.1"
   inkscape:version="0.91 r13725"
   sodipodi:docname="entropy-down.svg">
  <sodipodi:namedview
     id="base"
     pagecolor="#ffffff"
     bordercolor="#666666"
     borderopacity="1.0"
     inkscape:pageopacity="0.0"
     inkscape:pageshadow="2"
     inkscape:zoom="2.0262674"
     inkscape:cx="49.70007"
     inkscape:cy="75.917308"
     inkscape:document-units="px"
     inkscape:current-layer="layer1"
     showgrid="true"
     inkscape:window-width="1680"
     inkscape:window-height="939"
     inkscape:window-x="-53"
     inkscape:window-y="0"
     inkscape:window-maximized="0"
     inkscape:snap-grids="true"
     inkscape:snap-global="false">
    <inkscape:grid
       id="grid6452"
       type="xygrid"
       visible="false" />
  </sodipodi:namedview>
  <defs
     id="defs4">
    <marker
       inkscape:isstock="true"
       style="overflow:visible;"
       id="Arrow2Lend"
       refX="0.0"
       refY="0.0"
       orient="auto"
       inkscape:stockid="Arrow2Lend">
      <path
         transform="scale(1.1) rotate(180) translate(1,0)"
         d="M 8.7185878,4.0337352 L -2.2072895,0.016013256 L 8.7185884,-4.0017078 C 6.9730900,-1.6296469 6.9831476,1.6157441 8.7185878,4.0337352 z "
         style="fill-rule:evenodd;stroke-width:0.625;stroke-linejoin:round;stroke:#000000;stroke-opacity:1;fill:#000000;fill-opacity:1"
         id="path4235" />
    </marker>
    <marker
       inkscape:isstock="true"
       style="overflow:visible;"
       id="marker4601"
       refX="0.0"
       refY="0.0"
       orient="auto"
       inkscape:stockid="Arrow1Lend">
      <path
         transform="scale(0.8) rotate(180) translate(12.5,0)"
         style="fill-rule:evenodd;stroke:#000000;stroke-width:1pt;stroke-opacity:1;fill:#000000;fill-opacity:1"
         d="M 0.0,0.0 L 5.0,-5.0 L -12.5,0.0 L 5.0,5.0 L 0.0,0.0 z "
         id="path4603" />
    </marker>
    <marker
       inkscape:isstock="true"
       style="overflow:visible;"
       id="Arrow1Lend"
       refX="0.0"
       refY="0.0"
       orient="auto"
       inkscape:stockid="Arrow1Lend">
      <path
         transform="scale(0.8) rotate(180) translate(12.5,0)"
         style="fill-rule:evenodd;stroke:#000000;stroke-width:1pt;stroke-opacity:1;fill:#000000;fill-opacity:1"
         d="M 0.0,0.0 L 5.0,-5.0 L -12.5,0.0 L 5.0,5.0 L 0.0,0.0 z "
         id="path4217" />
    </marker>
    <marker
       inkscape:isstock="true"
       style="overflow:visible"
       id="Arrow2Lstart"
       refX="0.0"
       refY="0.0"
       orient="auto"
       inkscape:stockid="Arrow2Lstart">
      <path
         transform="scale(1.1) translate(1,0)"
         d="M 8.7185878,4.0337352 L -2.2072895,0.016013256 L 8.7185884,-4.0017078 C 6.9730900,-1.6296469 6.9831476,1.6157441 8.7185878,4.0337352 z "
         style="fill-rule:evenodd;stroke-width:0.625;stroke-linejoin:round;stroke:#000000;stroke-opacity:1;fill:#000000;fill-opacity:1"
         id="path4232" />
    </marker>
  </defs>
  <metadata
     id="metadata7">
    <rdf:RDF>
      <cc:Work
         rdf:about="">
        <dc:format>image/svg+xml</dc:format>
        <dc:type
           rdf:resource="http://purl.org/dc/dcmitype/StillImage" />
        <dc:title></dc:title>
      </cc:Work>
    </rdf:RDF>
  </metadata>
  <g
     transform="translate(0,-825.59055)"
     id="layer1"
     inkscape:groupmode="layer"
     inkscape:label="Layer 1">
    <ellipse
       ry="24.733768"
       rx="23.841356"
       cy="935.02826"
       cx="65.628792"
       id="path4136-3"
       style="fill:none;stroke:#808080;stroke-width:3.5;stroke-opacity:1;stroke-miterlimit:4;stroke-dasharray:none" />
    <ellipse
       ry="24.733768"
       rx="23.841356"
       cy="869.76685"
       cx="127.961"
       id="path4136-7"
       style="fill:none;stroke:#808080;stroke-width:3.5;stroke-opacity:1;stroke-miterlimit:4;stroke-dasharray:none" />
    <ellipse
       ry="24.733768"
       rx="23.841356"
       cy="935.0282"
       cx="190.006"
       id="path4136-5"
       style="fill:none;stroke:#808080;stroke-width:3.5;stroke-opacity:1;stroke-miterlimit:4;stroke-dasharray:none" />
    <ellipse
       ry="24.733768"
       rx="23.841356"
       cy="1000.8857"
       cx="62.181854"
       id="path4136-62"
       style="fill:none;stroke:#808080;stroke-width:3.5;stroke-opacity:1;stroke-miterlimit:4;stroke-dasharray:none" />
    <path
       sodipodi:nodetypes="cccccccc"
       inkscape:connector-curvature="0"
       id="path6448"
       d="m 19.987491,1016.5767 -14.5587898,-33.55927 9.6236068,0 -0.493518,-134.97724 c 2.385338,0.082 7.978546,-0.082 10.363884,0 l 0,134.73049 9.253467,0.24676 z"
       style="fill:#808080;fill-opacity:1;fill-rule:evenodd;stroke:#808080;stroke-width:1px;stroke-linecap:butt;stroke-linejoin:miter;stroke-opacity:1" />
    <g
       id="g6393"
       style="stroke:#808080">
      <path
         id="ellipse5682"
         d="m 151.75741,935.1709 a 23.841356,24.733768 0 0 1 -23.84136,24.73377 23.841356,24.733768 0 0 1 -23.84135,-24.73377 23.841356,24.733768 0 0 1 23.84135,-24.73377 23.841356,24.733768 0 0 1 23.84136,24.73377 z"
         style="fill:none;fill-opacity:1;stroke:#808080;stroke-width:3.5;stroke-miterlimit:4;stroke-dasharray:none;stroke-opacity:1" />
      <path
         id="path6396"
         style="stroke:#808080;stroke-width:3.5;fill:none"
         d="M 124.100288,910.836191 l -19.561798,19.561798 M 104.749855,940.793226 l 29.388131,-29.388131 M 141.366817,914.782866 l -33.562684,33.562684 M 112.694720,954.061564 l 33.978117,-33.978117 M 150.331040,927.031846 l -31.115711,31.115711 M 128.081834,959.887653 l 23.565811,-23.565811" />
    </g>
    <g
       id="g6398"
       style="stroke:#808080">
      <path
         id="path4136"
         d="M 89.757402,869.1709 A 23.841356,24.733768 0 0 1 65.916046,893.90467 23.841356,24.733768 0 0 1 42.07469,869.1709 23.841356,24.733768 0 0 1 65.916046,844.43713 23.841356,24.733768 0 0 1 89.757402,869.1709 Z"
         style="fill:none;fill-opacity:1;stroke:#808080;stroke-width:3.5;stroke-miterlimit:4;stroke-dasharray:none;stroke-opacity:1" />
      <path
         id="path6401"
         style="stroke:#808080;stroke-width:3.5;fill:none"
         d="M 62.911760,844.745499 l -20.458774,20.458774 M 42.923997,875.339863 l 29.762004,-29.762004 M 79.756292,849.114170 l -33.710992,33.710992 M 51.088910,888.388153 l 33.902111,-33.902111 M 88.494328,861.589337 l -30.736844,30.736844 M 66.885059,893.805208 l 22.686590,-22.686590" />
    </g>
    <g
       id="g6403"
       style="stroke:#808080">
      <path
         id="ellipse5686"
         d="m 151.75741,1001.1709 a 23.841356,24.733768 0 0 1 -23.84136,24.7338 23.841356,24.733768 0 0 1 -23.84135,-24.7338 23.841356,24.733768 0 0 1 23.84135,-24.73377 23.841356,24.733768 0 0 1 23.84136,24.73377 z"
         style="fill:none;fill-opacity:1;stroke:#808080;stroke-width:3.5;stroke-miterlimit:4;stroke-dasharray:none;stroke-opacity:1" />
      <path
         id="path6406"
         style="stroke:#808080;stroke-width:3.5;fill:none"
         d="M 120.935950,977.640140 l -15.450698,15.450698 M 104.417483,1004.765207 l 27.878508,-27.878508 M 139.890476,979.898816 l -32.892071,32.892071 M 111.423968,1018.971927 l 34.206873,-34.206873 M 149.723173,991.279323 l -32.096814,32.096814 M 125.910277,1025.698821 l 25.732275,-25.732275 M 148.206978,1014.008721 l -8.580529,8.580529" />
    </g>
    <g
       id="g6408"
       style="stroke:#808080">
      <path
         id="ellipse5678"
         d="m 213.7574,869.1709 a 23.841356,24.733768 0 0 1 -23.84135,24.73377 23.841356,24.733768 0 0 1 -23.84136,-24.73377 23.841356,24.733768 0 0 1 23.84136,-24.73377 23.841356,24.733768 0 0 1 23.84135,24.73377 z"
         style="fill:none;fill-opacity:1;stroke:#808080;stroke-width:3.5;stroke-miterlimit:4;stroke-dasharray:none;stroke-opacity:1" />
      <path
         id="path6411"
         style="stroke:#808080;stroke-width:3.5;fill:none"
         d="M 190.444122,844.492357 l -24.336844,24.336844 M 167.666911,877.876170 l 31.503602,-31.503602 M 205.531821,850.617862 l -34.049386,34.049386 M 176.893711,889.862573 l 33.385711,-33.385711 M 213.250844,864.112041 l -29.000131,29.000131 M 194.549382,893.420106 l 18.492721,-18.492721" />
    </g>
    <g
       id="g6413"
       style="stroke:#808080">
      <path
         id="ellipse5690"
         d="m 213.7574,1001.1709 a 23.841356,24.733768 0 0 1 -23.84135,24.7338 23.841356,24.733768 0 0 1 -23.84136,-24.7338 23.841356,24.733768 0 0 1 23.84136,-24.73377 23.841356,24.733768 0 0 1 23.84135,24.73377 z"
         style="fill:none;fill-opacity:1;stroke:#808080;stroke-width:3.5;stroke-miterlimit:4;stroke-dasharray:none;stroke-opacity:1" />
      <path
         id="path6416"
         style="stroke:#808080;stroke-width:3.5;fill:none"
         d="M 185.305311,976.910389 l -18.501350,18.501350 M 166.597404,1006.224898 l 29.002271,-29.002271 M 202.939953,980.488950 l -33.384464,33.384464 M 174.309938,1019.725567 l 34.050222,-34.050222 M 212.163622,992.478485 l -31.482089,31.482089 M 189.397258,1025.851450 l 24.326363,-24.326363" />
    </g>
  </g>
</svg>
