<?xml version="1.0" encoding="UTF-8" standalone="no"?>
<!-- Created with Inkscape (http://www.inkscape.org/) -->

<svg
   xmlns:dc="http://purl.org/dc/elements/1.1/"
   xmlns:cc="http://creativecommons.org/ns#"
   xmlns:rdf="http://www.w3.org/1999/02/22-rdf-syntax-ns#"
   xmlns:svg="http://www.w3.org/2000/svg"
   xmlns="http://www.w3.org/2000/svg"
   xmlns:sodipodi="http://sodipodi.sourceforge.net/DTD/sodipodi-0.dtd"
   xmlns:inkscape="http://www.inkscape.org/namespaces/inkscape"
   width="64mm"
   height="64mm"
   viewBox="0 0 226.77165 226.77165"
   id="svg4203"
   version="1.1"
   inkscape:version="0.91 r13725"
   sodipodi:docname="mutualinfo-down.svg">
  <sodipodi:namedview
     id="base"
     pagecolor="#ffffff"
     bordercolor="#666666"
     borderopacity="1.0"
     inkscape:pageopacity="0.0"
     inkscape:pageshadow="2"
     inkscape:zoom="3.4043056"
     inkscape:cx="28.199588"
     inkscape:cy="113.38583"
     inkscape:document-units="px"
     inkscape:current-layer="layer1"
     showgrid="true"
     inkscape:window-width="1600"
     inkscape:window-height="909"
     inkscape:window-x="70"
     inkscape:window-y="0"
     inkscape:window-maximized="0">
    <inkscape:grid
       id="grid4766"
       type="xygrid"
       visible="false" />
  </sodipodi:namedview>
  <defs
     id="defs4205" />
  <metadata
     id="metadata4208">
    <rdf:RDF>
      <cc:Work
         rdf:about="">
        <dc:format>image/svg+xml</dc:format>
        <dc:type
           rdf:resource="http://purl.org/dc/dcmitype/StillImage" />
        <dc:title></dc:title>
      </cc:Work>
    </rdf:RDF>
  </metadata>
  <g
     transform="translate(0,-825.59055)"
     id="layer1"
     inkscape:groupmode="layer"
     inkscape:label="Layer 1">
    <path
       sodipodi:nodetypes="cccccccc"
       inkscape:connector-curvature="0"
       id="path6448"
       d="m 20.461531,1021.6968 -14.5587899,-33.55929 9.6236069,0 -0.493518,-134.97724 c 2.385338,0.082 7.978546,-0.082 10.363884,0 l 0,134.73049 9.253467,0.24676 z"
       style="fill:#808080;fill-opacity:1;fill-rule:evenodd;stroke:#808080;stroke-width:1px;stroke-linecap:butt;stroke-linejoin:miter;stroke-opacity:1" />
    <path
       sodipodi:nodetypes="csscc"
       inkscape:connector-curvature="0"
       id="path4770"
       d="m 148.76927,940.39588 c -4.94425,24.02254 -32.59483,62.21552 -51.098118,29.70589 -7.821155,-13.74152 -45.607405,-70.90017 -32.030744,-111.09562 13.576657,-40.19545 40.704722,28.87979 40.704722,28.87979 11.10601,18.6783 52.47989,11.53248 42.42414,52.50994 z"
       style="fill:none;fill-rule:evenodd;stroke:#808080;stroke-width:3.5;stroke-linecap:butt;stroke-linejoin:miter;stroke-opacity:1;stroke-miterlimit:4;stroke-dasharray:none" />
    <path
       sodipodi:nodetypes="cscscc"
       inkscape:connector-curvature="0"
       id="path4772"
       d="m 80.625433,987.98134 c 0,0 -15.625433,-35.61914 31.430787,-60.3001 47.68996,-25.01336 62.67533,8.5123 62.67533,8.5123 0,0 13.13699,49.3896 27.5868,64.09346 21.50856,21.8867 16.63924,28.4119 -67.0246,18.8503 C 115,1017.3622 95,1032.3622 80.625433,987.98134 Z"
       style="fill:none;fill-rule:evenodd;stroke:#808080;stroke-width:3.5;stroke-linecap:butt;stroke-linejoin:miter;stroke-opacity:1;stroke-miterlimit:4;stroke-dasharray:none" />
    <g
       id="g9136">
      <path
         inkscape:connector-curvature="0"
         id="path6222"
         d="m 143.46875,918.41477 c -8.38468,0.10898 -18.74446,2.62145 -31.41211,9.26562 -12.96375,6.79948 -21.151935,14.42966 -26.238281,21.91602 5.102896,9.32944 9.663678,16.65838 11.853516,20.50586 18.503285,32.50963 46.153405,-5.68449 51.097655,-29.70703 2.34206,-9.54395 1.89099,-16.47518 -0.31445,-21.73242 -1.58315,-0.17164 -3.23356,-0.27083 -4.98633,-0.24805 z"
         style="fill:none;fill-opacity:1;fill-rule:evenodd;stroke:#808080;stroke-width:3.5;stroke-linecap:butt;stroke-linejoin:miter;stroke-miterlimit:4;stroke-dasharray:none;stroke-opacity:1" />
      <path
         id="path9139"
         transform="translate(0,825.59055)"
         style="stroke:#808080;stroke-width:3.5;fill:#808080"
         d="M 102.911973,107.550158 l -16.861948,16.861948 M 89.901954,131.166779 l 34.413631,-34.413631 M 138.427983,93.247351 l -44.654394,44.654394 M 97.711502,144.570434 l 50.920571,-50.920571 M 150.304552,102.583985 l -48.141949,48.141949 M 108.017445,155.477694 l 40.770263,-40.770263 M 142.712754,131.388987 l -25.271064,25.271064" />
    </g>
  </g>
</svg>
