<?xml version="1.0" encoding="UTF-8" standalone="no"?>
<svg width="256px" height="256px" viewBox="0 0 256 256" version="1.1" xmlns="http://www.w3.org/2000/svg" xmlns:xlink="http://www.w3.org/1999/xlink">
    <!-- Generator: Sketch 39.1 (31720) - http://www.bohemiancoding.com/sketch -->
    <title>Annotation</title>
    <desc>Created with Sketch.</desc>
    <defs></defs>
    <g id="Page-1" stroke="none" stroke-width="1" fill="none" fill-rule="evenodd">
        <g id="Annotation">
            <path d="M69.7460166,143.39406 L83.0323858,158.968148 L65.6105242,158.968148 L60.5951398,152.632926 C57.5448323,155.389934 54.4799059,157.340342 51.4002685,158.484208 C48.3206311,159.628073 45.1383869,160.199997 41.8534403,160.199997 C38.9791121,160.199997 36.2808036,159.862708 33.758434,159.188121 C31.2360643,158.513534 29.0216916,157.487004 27.1152494,156.108499 C25.2088072,154.729995 23.7130057,152.970228 22.6278002,150.829147 C21.5425946,148.688066 21,146.151069 21,143.218081 C21,140.813031 21.4106122,138.613323 22.2318488,136.618891 C23.0530854,134.62446 24.1822689,132.820699 25.619433,131.207556 C27.0565971,129.594412 28.7870341,128.186599 30.8107958,126.984074 C32.8345575,125.781549 35.0489302,124.740354 37.4539803,123.860457 C36.1048059,122.159324 35.0929402,120.326234 34.4183529,118.361133 C33.7437657,116.396031 33.4064772,114.416293 33.4064772,112.421862 C33.4064772,109.899492 33.8904129,107.582466 34.8582989,105.470715 C35.826185,103.358963 37.1606745,101.525873 38.8618075,99.9713898 C40.5629406,98.4169061 42.6013366,97.1997344 44.9770569,96.319838 C47.3527772,95.4399416 49.9191032,95 52.6761119,95 C55.1984815,95 57.5448367,95.3372886 59.7152479,96.0118758 C61.885659,96.686463 63.7627431,97.6543346 65.3465566,98.9155194 C66.9303701,100.176704 68.1768713,101.745829 69.0860976,103.622942 C69.9953239,105.500054 70.4499302,107.641103 70.4499302,110.046153 C70.4499302,112.040585 70.0979769,113.873675 69.3940598,115.545478 C68.6901427,117.217281 67.678277,118.757077 66.3584324,120.164911 C65.0385878,121.572745 63.4401334,122.848576 61.563021,123.992441 C59.6859087,125.136307 57.5741891,126.206831 55.2277987,127.204047 L61.6510102,134.859107 L68.3381894,125.620241 L84.440213,125.620241 L69.7460166,143.39406 Z M58.0434531,110.662078 C58.0434531,109.019604 57.574182,107.699779 56.6356259,106.702564 C55.6970697,105.705348 54.3772449,105.206747 52.6761119,105.206747 C50.68168,105.206747 49.0685609,105.851995 47.8367059,107.14251 C46.6048509,108.433024 45.9889327,110.046143 45.9889327,111.981916 C45.9889327,113.33109 46.2968918,114.694909 46.9128193,116.073413 C47.5287468,117.451918 48.2766475,118.581101 49.1565439,119.460998 C51.6789136,118.581101 53.7906332,117.378594 55.4917663,115.85344 C57.1928993,114.328287 58.0434531,112.59785 58.0434531,110.662078 L58.0434531,110.662078 Z M43.7892027,132.307421 C41.3841526,133.128657 39.3310918,134.28717 37.6299587,135.782994 C35.9288257,137.278818 35.0782719,139.317214 35.0782719,141.898243 C35.0782719,143.951335 35.8555021,145.608448 37.4099857,146.869633 C38.9644694,148.130818 40.7975594,148.761401 42.9093107,148.761401 C44.9624023,148.761401 46.810157,148.321459 48.4526303,147.441563 C50.0951036,146.561667 51.6202344,145.300501 53.0280687,143.658027 L43.7892027,132.307421 Z" id="&amp;" fill="#000000"></path>
            <path d="M115,33 C115,33 100,80.5 100,128 C100,175.5 115,223 115,223" id="Path-3" stroke="#000000" stroke-width="10"></path>
            <g id="Group-3" transform="translate(131.000000, 20.000000)">
                <rect id="Rectangle-4" stroke="#000000" stroke-width="5" fill="#80CA59" x="0" y="0" width="100" height="65" rx="10"></rect>
                <path d="M63.256,25.821 C63.256,26.3903362 63.2255003,27.0003301 63.1645,27.651 C63.1034997,28.3016699 63.0120006,28.9319969 62.89,29.542 L60.816,41.376 C60.6126656,42.4333386 60.4601672,43.5109945 60.3585,44.609 C60.2568328,45.7070055 60.206,46.6016632 60.206,47.293 L51.544,47.293 C51.544,46.8456644 51.5643331,46.3271696 51.605,45.7375 C51.6456669,45.1478304 51.7066663,44.5886693 51.788,44.06 L51.666,44.06 C49.4293222,46.7033465 46.3386864,48.025 42.394,48.025 C41.3366614,48.025 40.2488389,47.8928347 39.1305,47.6285 C38.0121611,47.3641653 36.9955046,46.9168365 36.0805,46.2865 C35.1654954,45.6561635 34.4233362,44.8225052 33.854,43.7855 C33.2846638,42.7484948 33,41.4776742 33,39.973 C33,37.5329878 33.6099939,35.5403411 34.83,33.995 C36.0500061,32.4496589 37.6461568,31.2500043 39.6185,30.396 C41.5908432,29.5419957 43.8274875,28.952335 46.3285,28.627 C48.8295125,28.301665 51.3406541,28.139 53.862,28.139 C53.9433337,27.7729982 53.984,27.4883343 53.984,27.285 L53.984,26.736 C53.984,25.5566608 53.5671708,24.6925027 52.7335,24.1435 C51.8998292,23.5944973 50.7306742,23.32 49.226,23.32 C47.8433264,23.32 46.450507,23.5843307 45.0475,24.113 C43.644493,24.6416693 42.3736724,25.3329957 41.235,26.187 L37.209,20.575 C39.0390091,19.1109927 41.1434881,17.982504 43.5225,17.1895 C45.9015119,16.396496 48.2499884,16 50.568,16 C52.3980092,16 54.0856589,16.1931647 55.631,16.5795 C57.1763411,16.9658353 58.5081611,17.5656626 59.6265,18.379 C60.7448389,19.1923374 61.6293301,20.2089939 62.28,21.429 C62.9306699,22.6490061 63.256,24.1129915 63.256,25.821 L63.256,25.821 Z M52.459,33.995 C51.2389939,33.995 49.998673,34.0458328 48.738,34.1475 C47.477327,34.2491672 46.3488383,34.462665 45.3525,34.788 C44.3561617,35.113335 43.5326699,35.5606638 42.882,36.13 C42.2313301,36.6993362 41.906,37.451662 41.906,38.387 C41.906,39.6070061 42.3228292,40.4304979 43.1565,40.8575 C43.9901708,41.2845021 44.9153283,41.498 45.932,41.498 C47.802676,41.498 49.368327,40.9185058 50.629,39.7595 C51.889673,38.6004942 52.682665,37.1670085 53.008,35.459 L53.313,33.995 L52.459,33.995 Z" id="a" fill="#000000"></path>
            </g>
            <g id="Group" transform="translate(131.000000, 96.500000)">
                <rect id="Rectangle-4" stroke="#000000" stroke-width="5" fill="#FFED09" x="-1.08479807e-14" y="0" width="100" height="65" rx="10"></rect>
                <path d="M44.457,28.642 C45.5143386,27.2186595 46.907158,26.0800043 48.6355,25.226 C50.363842,24.3719957 52.2039902,23.945 54.156,23.945 C56.1080098,23.945 57.8668255,24.2703301 59.4325,24.921 C60.9981745,25.5716699 62.3198279,26.4764942 63.3975,27.6355 C64.4751721,28.7945058 65.2986638,30.1771586 65.868,31.7835 C66.4373362,33.3898414 66.722,35.128324 66.722,36.999 C66.722,39.6016797 66.3051708,42.0518218 65.4715,44.3495 C64.6378292,46.6471782 63.4686742,48.6499915 61.964,50.358 C60.4593258,52.0660085 58.6903435,53.4079951 56.657,54.384 C54.6236565,55.3600049 52.3870122,55.848 49.947,55.848 C47.7916559,55.848 45.8091757,55.4006711 43.9995,54.506 C42.1898243,53.6113289 40.817338,52.3710079 39.882,50.785 L39.76,50.785 L39.028,55.116 L30,55.116 L38.113,9 L47.934,9 L44.335,28.642 L44.457,28.642 Z M57.023,38.28 C57.023,36.4499908 56.4943386,34.9148395 55.437,33.6745 C54.3796614,32.4341605 52.8140104,31.814 50.74,31.814 C49.5199939,31.814 48.3813386,32.0783307 47.324,32.607 C46.2666614,33.1356693 45.3618371,33.8473289 44.6095,34.742 C43.8571629,35.6366711 43.2573356,36.6736608 42.81,37.853 C42.3626644,39.0323392 42.139,40.2726602 42.139,41.574 C42.139,43.444676 42.7083276,44.9798273 43.847,46.1795 C44.9856724,47.3791727 46.5513234,47.979 48.544,47.979 C49.8453398,47.979 51.0144948,47.7248359 52.0515,47.2165 C53.0885052,46.7081641 53.9729963,46.0168377 54.705,45.1425 C55.4370037,44.2681623 56.0063313,43.2413392 56.413,42.062 C56.8196687,40.8826608 57.023,39.6220067 57.023,38.28 L57.023,38.28 Z" id="b" fill="#000000"></path>
            </g>
            <g id="Group-2" transform="translate(131.000000, 173.000000)">
                <rect id="Rectangle-4" stroke="#000000" stroke-width="5" fill="#F6A623" x="0" y="0" width="100" height="65" rx="10"></rect>
                <path d="M58.729,26.553 C58.2816644,25.8616632 57.5801714,25.2516693 56.6245,24.723 C55.6688286,24.1943307 54.6013392,23.93 53.422,23.93 C52.1206602,23.93 50.9210055,24.1841641 49.823,24.6925 C48.7249945,25.2008359 47.779504,25.9023289 46.9865,26.797 C46.193496,27.6916711 45.5733356,28.7184942 45.126,29.8775 C44.6786644,31.0365058 44.455,32.246327 44.455,33.507 C44.455,34.3610043 44.5871653,35.184496 44.8515,35.9775 C45.1158347,36.770504 45.5123307,37.4618304 46.041,38.0515 C46.5696693,38.6411696 47.2508292,39.1189982 48.0845,39.485 C48.9181708,39.8510018 49.9043276,40.034 51.043,40.034 C52.5070073,40.034 53.7473283,39.7696693 54.764,39.241 C55.7806718,38.7123307 56.6549963,38.0616705 57.387,37.289 L62.023,43.511 C60.4369921,44.9343405 58.6476766,46.0628292 56.655,46.8965 C54.6623234,47.7301708 52.3646797,48.147 49.762,48.147 C47.565989,48.147 45.5530092,47.8318365 43.723,47.2015 C41.8929908,46.5711635 40.3375064,45.6663392 39.0565,44.487 C37.7754936,43.3076608 36.7791702,41.9046748 36.0675,40.278 C35.3558298,38.6513252 35,36.8213435 35,34.788 C35,32.3073209 35.4473289,29.9385113 36.342,27.6815 C37.2366711,25.4244887 38.4973252,23.431842 40.124,21.7035 C41.7506748,19.975158 43.7128218,18.5925052 46.0105,17.5555 C48.3081782,16.5184948 50.859986,16 53.666,16 C55.9840116,16 58.1494899,16.3863295 60.1625,17.159 C62.1755101,17.9316705 63.7513276,19.1109921 64.89,20.697 L58.729,26.553 Z" id="c" fill="#000000"></path>
            </g>
        </g>
    </g>
</svg>