<?xml version="1.0" encoding="UTF-8" standalone="no"?>
<svg width="256px" height="256px" viewBox="0 0 256 256" version="1.1" xmlns="http://www.w3.org/2000/svg" xmlns:xlink="http://www.w3.org/1999/xlink">
    <!-- Generator: Sketch 39.1 (31720) - http://www.bohemiancoding.com/sketch -->
    <title>ParallelCoordinates</title>
    <desc>Created with Sketch.</desc>
    <defs></defs>
    <g id="Page-1" stroke="none" stroke-width="1" fill="none" fill-rule="evenodd">
        <g id="ParallelCoordinates">
            <polygon id="Rectangle-4" fill="#80CA59" points="35 163 128 182 128 221 35 221"></polygon>
            <polygon id="Rectangle-4" fill="#F5A623" points="35 128 128 118 128 128 35 141"></polygon>
            <polygon id="Rectangle-4" fill="#F5A623" points="128 118 221 150 221 218 128 128"></polygon>
            <polygon id="Rectangle-4" fill="#FFED09" points="35 35 128 54 128 105 35 54"></polygon>
            <polygon id="Rectangle-4" fill="#FFED09" points="128 54 221 42 221 54 128 105"></polygon>
            <polygon id="Rectangle-4" fill="#80CA59" transform="translate(174.500000, 150.500000) scale(-1, 1) translate(-174.500000, -150.500000) " points="128 80 221 182 221 221 128 128"></polygon>
            <path d="M39,221 L39,35" id="Line" stroke="#000000" stroke-width="10" stroke-linecap="square"></path>
            <path d="M225,221 L225,35" id="Line" stroke="#000000" stroke-width="10" stroke-linecap="square"></path>
            <path d="M132,221 L132,35" id="Line" stroke="#000000" stroke-width="10" stroke-linecap="square"></path>
        </g>
    </g>
</svg>