<?xml version="1.0" encoding="UTF-8" standalone="no"?>
<svg width="256px" height="256px" viewBox="0 0 256 256" version="1.1" xmlns="http://www.w3.org/2000/svg" xmlns:xlink="http://www.w3.org/1999/xlink">
    <!-- Generator: Sketch 39.1 (31720) - http://www.bohemiancoding.com/sketch -->
    <title>ScatterPlotControl</title>
    <desc>Created with Sketch.</desc>
    <defs></defs>
    <g id="Page-1" stroke="none" stroke-width="1" fill="none" fill-rule="evenodd">
        <g id="ScatterPlotControl" stroke="#000000" stroke-width="5">
            <path d="M36,222 L221,222" id="Line" stroke-linecap="square"></path>
            <path d="M34,221 L34,36" id="Line" stroke-linecap="square"></path>
            <circle id="Oval-2" fill="#F8E81C" cx="68" cy="190" r="15"></circle>
            <circle id="Oval-2" fill="#FF6A45" cx="93" cy="170" r="25"></circle>
            <circle id="Oval-2" fill="#FF6A45" cx="183" cy="183" r="25"></circle>
            <circle id="Oval-2" fill="#F8E81C" cx="128" cy="129" r="15"></circle>
            <circle id="Oval-2" fill="#FF6A45" transform="translate(166.000000, 103.000000) scale(1, -1) translate(-166.000000, -103.000000) " cx="166" cy="103" r="25"></circle>
            <ellipse id="Oval-2" fill="#F6A623" cx="153" cy="123" rx="20" ry="20"></ellipse>
            <ellipse id="Oval-2" fill="#F6A623" cx="74" cy="108" rx="20" ry="20"></ellipse>
            <circle id="Oval-2" fill="#F8E81C" cx="166" cy="128" r="15"></circle>
            <circle id="Oval-2" fill="#F8E81C" cx="90" cy="113" r="15"></circle>
            <circle id="Oval-2" fill="#F8E81C" cx="193" cy="83" r="15"></circle>
            <circle id="Oval-2" fill="#F8E81C" cx="166" cy="173" r="15"></circle>
            <circle id="Oval-2" fill="#FF6A45" transform="translate(130.000000, 54.000000) scale(1, -1) translate(-130.000000, -54.000000) " cx="130" cy="54" r="25"></circle>
            <ellipse id="Oval-2" fill="#F6A623" cx="114" cy="72" rx="20" ry="20"></ellipse>
            <circle id="Oval-2" fill="#F8E81C" cx="157" cy="47" r="15"></circle>
            <circle id="Oval-2" fill="#F8E81C" cx="89" cy="65" r="15"></circle>
        </g>
    </g>
</svg>