<?xml version="1.0" encoding="UTF-8" standalone="no"?>
<svg width="104px" height="104px" viewBox="0 0 104 104" version="1.1" xmlns="http://www.w3.org/2000/svg" xmlns:xlink="http://www.w3.org/1999/xlink">
    <!-- Generator: Sketch 3.7.2 (28276) - http://www.bohemiancoding.com/sketch -->
    <title>And</title>
    <desc>Created with Sketch.</desc>
    <defs></defs>
    <g id="Page-1" stroke="none" stroke-width="1" fill="none" fill-rule="evenodd">
        <g id="And">
            <circle id="Oval-1" fill="#4A4A4A" cx="52" cy="52" r="50"></circle>
            <path d="M45.1891892,54.8378378 C43.7837768,55.3243268 42.4459523,55.8918886 41.1756757,56.5405405 C39.9053991,57.1891924 38.8108154,57.9459416 37.8918919,58.8108108 C36.9729684,59.67568 36.2432459,60.6891834 35.7027027,61.8513514 C35.1621595,63.0135193 34.8918919,64.324317 34.8918919,65.7837838 C34.8918919,66.9189246 35.1216193,67.9729681 35.5810811,68.9459459 C36.0405428,69.9189238 36.6621582,70.7432399 37.4459459,71.4189189 C38.2297336,72.094598 39.1486434,72.6216197 40.2027027,73 C41.256762,73.3783803 42.3783724,73.5675676 43.5675676,73.5675676 C45.9459578,73.5675676 48.0675582,73.0000057 49.9324324,71.8648649 C51.7973066,70.7297241 53.5675592,69.1351454 55.2432432,67.0810811 L45.1891892,54.8378378 Z M58.7297297,35.6216216 C58.7297297,33.8378289 58.2162214,32.4054108 57.1891892,31.3243243 C56.162157,30.2432378 54.7297389,29.7027027 52.8918919,29.7027027 C50.7297189,29.7027027 48.9864931,30.4053984 47.6621622,31.8108108 C46.3378312,33.2162232 45.6756757,34.9729624 45.6756757,37.0810811 C45.6756757,38.4864935 45.9999968,39.9594518 46.6486486,41.5 C47.2973005,43.0405482 48.0540497,44.2972924 48.9189189,45.2702703 C50.270277,44.7837814 51.5405346,44.2027061 52.7297297,43.527027 C53.9189249,42.851348 54.959455,42.1081122 55.8513514,41.2972973 C56.7432477,40.4864824 57.4459434,39.6081128 57.9594595,38.6621622 C58.4729755,37.7162115 58.7297297,36.7027081 58.7297297,35.6216216 L58.7297297,35.6216216 Z M60.9189189,60.4324324 L67.8918919,50.5405405 L79.4054054,50.5405405 L66.5945946,66.8378378 L78.5135135,80.8648649 L66.6756757,80.8648649 L61,73.6486486 C57.8648492,76.7837995 54.8108257,78.9594534 51.8378378,80.1756757 C48.86485,81.391898 45.8378532,82 42.7567568,82 C40.1621492,82 37.7837946,81.6756789 35.6216216,81.027027 C33.4594486,80.3783751 31.5946024,79.4054119 30.027027,78.1081081 C28.4594516,76.8108043 27.2297342,75.2027123 26.3378378,73.2837838 C25.4459415,71.3648553 25,69.1351478 25,66.5945946 C25,64.324313 25.4054014,62.2432527 26.2162162,60.3513514 C27.0270311,58.45945 28.1216147,56.7702777 29.5,55.2837838 C30.8783853,53.7972899 32.5135041,52.5000055 34.4054054,51.3918919 C36.2973068,50.2837782 38.2972868,49.3243284 40.4054054,48.5135135 C39.3243189,46.9459381 38.4459493,45.2432524 37.7702703,43.4054054 C37.0945912,41.5675584 36.7567568,39.6216319 36.7567568,37.5675676 C36.7567568,35.1891773 37.1756715,33.0405501 38.0135135,31.1216216 C38.8513555,29.2026931 39.9864793,27.5675743 41.4189189,26.2162162 C42.8513585,24.8648581 44.5405308,23.824328 46.4864865,23.0945946 C48.4324422,22.3648612 50.5135024,22 52.7297297,22 C54.8378484,22 56.8108016,22.2972943 58.6486486,22.8918919 C60.4864957,23.4864895 62.0675609,24.3513457 63.3918919,25.4864865 C64.7162228,26.6216273 65.7702664,27.9999919 66.5540541,29.6216216 C67.3378418,31.2432514 67.7297297,33.1080976 67.7297297,35.2162162 C67.7297297,38.8378559 66.4324454,41.9189062 63.8378378,44.4594595 C61.2432303,47.0000127 57.7297519,49.2432335 53.2972973,51.1891892 L60.9189189,60.4324324 Z" id="&amp;" fill="#FFFFFF"></path>
        </g>
    </g>
</svg>