<?xml version="1.0" encoding="UTF-8"?>
<svg width="749px" height="196px" viewBox="0 0 749 196" version="1.1" xmlns="http://www.w3.org/2000/svg" xmlns:xlink="http://www.w3.org/1999/xlink">
    <!-- Generator: Sketch 43.2 (39069) - http://www.bohemiancoding.com/sketch -->
    <title>ParaView</title>
    <desc>Created with Sketch.</desc>
    <defs></defs>
    <g id="Page-1" stroke="none" stroke-width="1" fill="none" fill-rule="evenodd">
        <g id="ParaView">
            <path d="M241.594733,122.33233 L247.411661,122.33233 C256.369629,122.33233 265.560593,117.832901 265.560593,108.046594 C265.560593,100.060462 258.929228,98.3731253 251.948999,98.3731253 L246.830219,98.3731253 L241.594733,122.33233 Z M232.287481,164.514119 L216,164.514119 L233.218207,86 L246.946089,86 C261.953981,86 282.546223,86.7870461 282.546223,106.359257 C282.546223,125.369293 266.37503,134.70586 248.226098,134.70586 L238.802558,134.70586 L232.287481,164.514119 Z" id="Fill-1" fill="#ddd"></path>
            <path d="M303.802558,154.605745 C315.436413,154.605745 319.043026,146.844484 321.485918,137.508321 L316.018273,137.508321 C308.456184,137.508321 295.891185,138.745512 295.891185,148.531416 C295.891185,152.581104 299.84708,154.605745 303.802558,154.605745 L303.802558,154.605745 Z M319.043026,155.393196 L318.810031,155.393196 C313.458675,161.917266 308.107319,165.629244 299.497797,165.629244 C288.678378,165.629244 281,159.780189 281,149.093996 C281,129.97193 303.104409,128.509464 317.763435,128.509464 L323.23108,128.509464 C323.696652,126.934563 323.696652,125.247227 323.696652,123.55989 C323.696652,117.710835 317.181575,116.023499 311.713513,116.023499 C304.849571,116.023499 298.218207,117.710835 292.052414,120.522928 L294.262729,108.487108 C300.894094,106.237596 307.641747,105 314.621977,105 C326.605115,105 337.890106,109.274558 337.890106,122.885279 C337.890106,130.646541 331.95689,153.36815 330.560593,164.279618 L317.414152,164.279618 L319.043026,155.393196 Z" id="Fill-3" fill="#ddd"></path>
            <path d="M355.70313,114.111292 C356.168284,111.63691 356.633856,109.049284 357.099009,106.350031 L371.990612,106.350031 L369.896585,117.261095 L370.129162,117.261095 C372.921337,110.961895 380.600134,105 387.81294,105 C389.790679,105 391.884706,105.112435 393.746156,105.56258 L390.488409,120.298057 C388.743665,119.735477 386.532931,119.398172 384.555611,119.398172 C373.503197,119.398172 368.151423,128.959609 366.173684,138.295772 L360.589333,164.279618 L345,164.279618 L355.70313,114.111292 Z" id="Fill-4" fill="#ddd"></path>
            <path d="M413.802558,154.605745 C425.436413,154.605745 429.043026,146.844484 431.485918,137.508321 L426.018273,137.508321 C418.456184,137.508321 405.891603,138.745512 405.891603,148.531416 C405.891603,152.581104 409.84708,154.605745 413.802558,154.605745 L413.802558,154.605745 Z M429.043026,155.393196 L428.810449,155.393196 C423.458675,161.917266 418.1069,165.629244 409.497797,165.629244 C398.678378,165.629244 391,159.780189 391,149.093996 C391,129.97193 413.104409,128.509464 427.763435,128.509464 L433.23108,128.509464 C433.696652,126.934563 433.696652,125.247227 433.696652,123.55989 C433.696652,117.710835 427.181575,116.023499 421.713513,116.023499 C414.849571,116.023499 408.218207,117.710835 402.051995,120.522928 L404.262729,108.487108 C410.894094,106.237596 417.641747,105 424.621977,105 C436.605115,105 447.889688,109.274558 447.889688,122.885279 C447.889688,130.646541 441.95689,153.36815 440.560593,164.279618 L427.414152,164.279618 L429.043026,155.393196 Z" id="Fill-5" fill="#ddd"></path>
            <polygon id="Fill-6" fill="#ddd" points="465 86 481.2879 86 488.84999 147.078985 489.082148 147.078985 522.820831 86 540.504191 86 495.132071 164.514119 475.703549 164.514119"></polygon>
            <path d="M551.497797,82 L567.087548,82 L563.829801,96.3981715 L548.240468,96.3981715 L551.497797,82 Z M545.797576,106.971525 L561.387327,106.971525 L548.589751,164.901517 L533,164.901517 L545.797576,106.971525 Z" id="Fill-7" fill="#ddd"></path>
            <path d="M610.394382,129.63422 C610.626958,128.284594 610.743247,127.047402 610.743247,125.697372 C610.743247,119.511011 607.369629,116.023903 600.854135,116.023903 C591.198018,116.023903 587.010382,121.648088 583.985212,129.63422 L610.394382,129.63422 Z M581.891185,139.983108 C581.891185,150.668897 587.824401,154.605745 598.527531,154.605745 C604.926319,154.605745 611.09253,153.031249 616.90904,150.444027 L614.931719,162.367411 C608.881796,164.167183 602.250432,165.629244 595.851644,165.629244 C578.633437,165.629244 567,157.530677 567,140.320413 C567,122.323103 581.425613,105 601.08713,105 C615.862026,105 625.63485,112.311925 625.63485,127.047402 C625.63485,131.433991 625.05299,135.70855 624.122264,139.983108 L581.891185,139.983108 Z" id="Fill-8" fill="#ddd"></path>
            <polygon id="Fill-9" fill="#ddd" points="635 107 650.589333 107 654.894094 150.53182 655.126252 150.53182 677.114791 107 694.449287 107 697.706615 150.53182 697.939611 150.53182 720.974327 107 736.913361 107 703.64025 164.929587 686.07276 164.929587 682.698724 120.610721 682.466566 120.610721 660.594733 164.929587 642.910955 164.929587"></polygon>
            <polygon id="Fill-10" fill="#AC252C" points="57.7120376 164.443736 13 164.443736 49.7529778 30 94.4645972 30"></polygon>
            <polygon id="Stroke-11" points="57.7120376 164.443736 13 164.443736 49.7529778 30 94.4645972 30"></polygon>
            <polygon id="Fill-12" fill="#258E44" points="117.711619 164.444545 73 164.444545 109.753396 30 154.465015 30"></polygon>
            <polygon id="Stroke-13" points="117.711619 164.444545 73 164.444545 109.753396 30 154.465015 30"></polygon>
            <polygon id="Fill-14" fill="#1B4678" points="176.711619 164.443736 132 164.443736 168.75256 30 213.464597 30"></polygon>
            <polygon id="Stroke-15" points="176.711619 164.443736 132 164.443736 168.75256 30 213.464597 30"></polygon>
        </g>
    </g>
</svg>
